<svg width="192" height="49" viewBox="0 0 192 49" xmlns="http://www.w3.org/2000/svg" fill="#FFFFFF">
        <path d="M35.8136 12.9128C35.5209 12.9128 35.2233 12.9272 34.9402 12.9512C32.2769 13.148 29.748 14.276 27.8045 16.1384C27.7469 16.196 27.6846 16.2536 27.6174 16.316C26.2306 17.708 25.2276 19.4168 24.695 21.2792L19.9538 16.4024H19.9586L19.7427 16.1864C18.4518 14.9288 17.8376 13.172 18.0487 11.372C18.3559 8.7608 20.4769 6.6584 23.097 6.3752C25.9954 6.0584 28.6731 7.9448 29.3305 10.7672C29.3737 10.9496 29.5753 11.0504 29.7432 10.9688C31.3124 10.244 32.9823 9.8024 34.7147 9.6632C34.897 9.6488 35.0218 9.476 34.9786 9.2984C33.7021 4.1192 29.0858 0.5 23.7448 0.5C17.3577 0.5 12.1655 5.6936 12.1655 12.0776C12.1655 12.3704 12.1751 12.6536 12.1991 12.932C12.0264 12.9224 11.8488 12.9176 11.6761 12.9176C5.29377 12.9176 0.101562 18.116 0.101562 24.5C0.101562 30.884 5.29377 36.0776 11.6761 36.0776C11.9688 36.0776 12.2615 36.0632 12.5494 36.0392C15.8221 35.7992 18.8501 34.1624 20.8512 31.5512C20.9424 31.436 20.9328 31.268 20.8272 31.1624L17.0986 27.332C16.9642 27.1928 16.7291 27.2216 16.6283 27.3896C16.374 27.8216 16.0717 28.2104 15.7262 28.556C14.6417 29.6408 13.202 30.2264 11.6569 30.236C8.63847 30.2312 6.07116 27.7784 5.9368 24.7688C5.86002 23.0456 6.52704 21.4232 7.80829 20.252C8.69606 19.4408 9.82855 18.9272 11.0234 18.7976C12.7558 18.6104 14.4353 19.1864 15.6686 20.3864C15.755 20.468 15.8365 20.5544 15.9133 20.636L27.2383 32.2856L27.9869 33.068C28.0972 33.1832 28.2076 33.3176 28.3132 33.4568C29.2201 34.652 29.6184 36.1448 29.4313 37.6568C29.1098 40.2488 26.9935 42.3416 24.3974 42.6248C21.523 42.9416 18.8453 41.0744 18.1687 38.2808C18.1255 38.0984 17.9288 38.0024 17.756 38.0792C16.1868 38.7848 14.5121 39.212 12.7702 39.3416C12.5878 39.356 12.4582 39.5288 12.5062 39.7064C13.8019 44.9624 18.4614 48.5 23.7544 48.5C24.3543 48.5 24.9589 48.4568 25.5731 48.3608C31.4611 47.4632 35.7704 41.9816 35.2953 36.068C35.4681 36.0776 35.6456 36.0824 35.8184 36.0824H38.2657C38.4385 36.0824 38.5776 35.9432 38.5776 35.7704V30.548C38.5776 30.3752 38.4385 30.236 38.2657 30.236H35.8184C34.3116 30.236 32.8864 29.6552 31.8163 28.6136L31.5715 28.3592C30.6118 27.2984 30.0791 25.9304 30.0791 24.5C30.0791 22.964 30.6742 21.524 31.7587 20.4392C32.8432 19.3592 34.278 18.764 35.804 18.7592C38.9663 18.7544 41.5576 21.4376 41.5576 24.6008V28.2392C41.5576 31.3016 44.0386 33.7832 47.1002 33.7832H47.3977V24.5C47.3977 18.1112 42.2055 12.9176 35.8232 12.9176L35.8136 12.9128Z"></path>
        <path d="M66.2237 40.3113H58.6945C58.6129 40.3113 58.5361 40.3641 58.5122 40.4409L57.3509 43.8729C57.3221 43.9497 57.2501 44.0025 57.1685 44.0025H52.1874C52.0819 44.0025 52.0099 43.8969 52.0435 43.8009L59.4911 23.2041C59.5199 23.1273 59.5919 23.0745 59.6734 23.0745H65.3023C65.3839 23.0745 65.4559 23.1273 65.4847 23.2041L72.9323 43.8009C72.9659 43.9017 72.8939 44.0025 72.7883 44.0025H67.7497C67.6681 44.0025 67.5913 43.9497 67.5673 43.8729L66.406 40.4409C66.3772 40.3641 66.3053 40.3113 66.2237 40.3113ZM62.3511 29.0409L59.947 36.2217C59.923 36.2985 59.9758 36.3753 60.0573 36.3753H64.8896C64.9712 36.3753 65.024 36.2985 65 36.2217L62.5719 29.0409C62.5383 28.9353 62.3847 28.9353 62.3511 29.0409Z"></path>
        <path d="M75.5989 21.9516H80.3928C80.4744 21.9516 80.5463 22.0188 80.5463 22.1052V43.8588C80.5463 43.9404 80.4792 44.0124 80.3928 44.0124H75.5989C75.5173 44.0124 75.4453 43.9452 75.4453 43.8588V22.1004C75.4453 22.0188 75.5125 21.9468 75.5989 21.9468V21.9516Z"></path>
        <path d="M91.7775 44.2472C86.8925 44.2472 83.375 40.9688 83.375 35.6936C83.375 30.4184 86.8301 27.14 91.7775 27.14C96.725 27.14 100.06 30.3608 100.06 35.4248C100.06 35.8616 100.036 36.3176 99.9881 36.7784C99.9785 36.8552 99.9162 36.9128 99.8346 36.9128H88.6056C88.5144 36.9128 88.4424 36.9944 88.452 37.0808C88.6872 39.14 89.9972 40.1 91.5952 40.1C92.982 40.1 93.7786 39.428 94.2057 38.5736C94.2297 38.5208 94.2825 38.492 94.3401 38.492H99.4699C99.5707 38.492 99.6426 38.588 99.6186 38.684C98.7453 41.8376 95.8325 44.2472 91.7727 44.2472H91.7775ZM88.6536 34.0808H94.6904C94.7767 34.0808 94.8487 34.0088 94.8439 33.9224C94.7623 32.1992 93.3659 31.2152 91.72 31.2152C90.074 31.2152 88.8551 32.1608 88.5048 33.8984C88.4856 33.9896 88.5576 34.0808 88.6536 34.0808Z"></path>
        <path d="M125.803 34.9783C125.803 32.8039 124.551 31.6087 122.617 31.6087C120.683 31.6087 119.426 32.7991 119.426 34.9783V43.8583C119.426 43.9399 119.359 44.0119 119.272 44.0119H114.507C114.426 44.0119 114.354 43.9447 114.354 43.8583V34.9783C114.354 32.8039 113.101 31.6087 111.167 31.6087C109.233 31.6087 107.976 32.7991 107.976 34.9783V43.8583C107.976 43.9399 107.909 44.0119 107.822 44.0119H103.029C102.947 44.0119 102.875 43.9447 102.875 43.8583V27.5287C102.875 27.4471 102.942 27.3751 103.029 27.3751H107.822C107.904 27.3751 107.976 27.4423 107.976 27.5287V29.0359C107.976 29.1751 108.149 29.2375 108.24 29.1319C109.248 27.9703 110.841 27.1975 112.832 27.1975C115.246 27.1975 117.218 28.2247 118.37 30.0919C118.428 30.1879 118.562 30.1879 118.624 30.0967C119.757 28.4359 121.777 27.1975 124.095 27.1975C128.207 27.1975 130.861 29.8183 130.861 34.2919V43.8583C130.861 43.9399 130.794 44.0119 130.708 44.0119H125.942C125.861 44.0119 125.789 43.9447 125.789 43.8583V34.9783H125.803Z"></path>
        <path d="M140.906 27.1354C143.152 27.1354 144.802 28.0666 145.762 29.3338C145.848 29.449 146.031 29.3914 146.031 29.2426V27.5242C146.031 27.4426 146.098 27.3706 146.184 27.3706H150.978C151.06 27.3706 151.132 27.4378 151.132 27.5242V43.8538C151.132 43.9354 151.065 44.0074 150.978 44.0074H146.184C146.103 44.0074 146.031 43.9402 146.031 43.8538V42.1258C146.031 41.9818 145.848 41.9194 145.762 42.0346C144.783 43.3066 143.128 44.2426 140.877 44.2426C136.822 44.2426 133.578 40.9018 133.578 35.6602C133.578 30.4186 136.827 27.1354 140.911 27.1354H140.906ZM142.393 31.5754C140.488 31.5754 138.756 33.0058 138.756 35.6602C138.756 38.3146 140.483 39.8026 142.393 39.8026C144.303 39.8026 146.031 38.3434 146.031 35.689C146.031 33.0346 144.332 31.5754 142.393 31.5754Z"></path>
        <path d="M166.439 34.9783C166.439 32.7127 165.187 31.4599 163.253 31.4599C161.319 31.4599 160.062 32.7127 160.062 34.9783V43.8583C160.062 43.9399 159.995 44.0119 159.908 44.0119H155.114C155.033 44.0119 154.961 43.9447 154.961 43.8583V27.5287C154.961 27.4471 155.028 27.3751 155.114 27.3751H159.908C159.99 27.3751 160.062 27.4423 160.062 27.5287V29.1511C160.062 29.2903 160.235 29.3575 160.326 29.2471C161.372 28.0279 163.047 27.1975 165.101 27.1975C168.944 27.1975 171.507 29.8183 171.507 34.2919V43.8583C171.507 43.9399 171.44 44.0119 171.353 44.0119H166.588C166.507 44.0119 166.435 43.9447 166.435 43.8583V34.9783H166.439Z"></path>
        <path d="M181.511 27.1354C183.757 27.1354 185.413 28.0666 186.368 29.3338C186.454 29.449 186.636 29.3914 186.636 29.2426V27.5242C186.636 27.4426 186.703 27.3706 186.79 27.3706H191.584C191.665 27.3706 191.737 27.4378 191.737 27.5242V43.8538C191.737 43.9354 191.67 44.0074 191.584 44.0074H186.79C186.708 44.0074 186.636 43.9402 186.636 43.8538V42.1258C186.636 41.9818 186.454 41.9194 186.368 42.0346C185.389 43.3066 183.733 44.2426 181.482 44.2426C177.428 44.2426 174.184 40.9018 174.184 35.6602C174.184 30.4186 177.432 27.1354 181.516 27.1354H181.511ZM182.999 31.5754C181.094 31.5754 179.361 33.0058 179.361 35.6602C179.361 38.3146 181.089 39.8026 182.999 39.8026C184.909 39.8026 186.636 38.3434 186.636 35.689C186.636 33.0346 184.938 31.5754 182.999 31.5754Z"></path>
        <path d="M110.871 8.57837C111.965 8.57837 112.771 9.03437 113.237 9.64877C113.28 9.70637 113.371 9.67757 113.371 9.60557V8.77037C113.371 8.73197 113.405 8.69837 113.443 8.69837H115.78C115.818 8.69837 115.852 8.73197 115.852 8.77037V16.7336C115.852 16.772 115.818 16.8056 115.78 16.8056H113.443C113.405 16.8056 113.371 16.772 113.371 16.7336V15.8936C113.371 15.8216 113.285 15.7928 113.242 15.8504C112.767 16.4696 111.956 16.9256 110.861 16.9256C108.884 16.9256 107.301 15.2984 107.301 12.74C107.301 10.1816 108.884 8.58317 110.876 8.58317L110.871 8.57837ZM111.596 10.7432C110.665 10.7432 109.825 11.4392 109.825 12.7352C109.825 14.0312 110.669 14.756 111.596 14.756C112.522 14.756 113.366 14.0456 113.366 12.7496C113.366 11.4536 112.536 10.7432 111.596 10.7432Z"></path>
        <path d="M85.8971 12.3994C85.8971 11.2954 85.2877 10.6858 84.3424 10.6858C83.397 10.6858 82.7876 11.2954 82.7876 12.3994V16.729C82.7876 16.7674 82.754 16.801 82.7156 16.801H80.3786C80.3402 16.801 80.3066 16.7674 80.3066 16.729V8.77058C80.3066 8.73218 80.3402 8.69858 80.3786 8.69858H82.7156C82.754 8.69858 82.7876 8.73218 82.7876 8.77058V9.56258C82.7876 9.62978 82.874 9.66338 82.9171 9.61058C83.4258 9.01538 84.2416 8.61218 85.2445 8.61218C87.1208 8.61218 88.3685 9.88898 88.3685 12.073V16.7386C88.3685 16.777 88.3349 16.8106 88.2965 16.8106H85.9739C85.9355 16.8106 85.9019 16.777 85.9019 16.7386V12.409L85.8971 12.3994Z"></path>
        <path d="M60.3681 6.48572C62.7531 6.48572 64.5622 7.80572 65.1764 9.94652C65.1908 10.0041 65.1476 10.0617 65.09 10.0617H62.5323C62.4987 10.0617 62.4651 10.0425 62.4507 10.0089C62.0237 9.17372 61.2655 8.75132 60.3393 8.75132C58.8133 8.75132 57.7672 9.88412 57.7672 11.6889C57.7672 13.4937 58.8133 14.6265 60.3393 14.6265C61.2655 14.6265 62.0237 14.2089 62.4507 13.3689C62.4651 13.3353 62.4987 13.3161 62.5323 13.3161H65.09C65.1476 13.3161 65.1908 13.3737 65.1764 13.4313C64.5622 15.5721 62.7531 16.8777 60.3681 16.8777C57.3593 16.8777 55.2383 14.7417 55.2383 11.6889C55.2383 8.63612 57.3593 6.48572 60.3681 6.48572Z"></path>
        <path d="M68.3627 6.04895H70.666C70.714 6.04895 70.7572 6.08735 70.7572 6.14015V16.7146C70.7572 16.7626 70.7188 16.8058 70.666 16.8058H68.3627C68.3147 16.8058 68.2715 16.7674 68.2715 16.7146V6.14015C68.2715 6.09215 68.3099 6.04895 68.3627 6.04895Z"></path>
        <path d="M76.6797 8.69348H74.3763C74.326 8.69348 74.2852 8.73431 74.2852 8.78468V16.7095C74.2852 16.7599 74.326 16.8007 74.3763 16.8007H76.6797C76.7301 16.8007 76.7709 16.7599 76.7709 16.7095V8.78468C76.7709 8.73431 76.7301 8.69348 76.6797 8.69348Z"></path>
        <path d="M91.4004 6.51473C91.4004 5.76113 91.9954 5.16113 92.8832 5.16113C93.771 5.16113 94.3516 5.75633 94.3516 6.51473C94.3516 7.27313 93.7566 7.85393 92.8832 7.85393C92.0098 7.85393 91.4004 7.25873 91.4004 6.51473ZM91.7219 8.69393H94.0253C94.0733 8.69393 94.1165 8.73233 94.1165 8.78513V16.7147C94.1165 16.7627 94.0781 16.8059 94.0253 16.8059H91.7219C91.6739 16.8059 91.6307 16.7675 91.6307 16.7147V8.78513C91.6307 8.73713 91.6691 8.69393 91.7219 8.69393Z"></path>
        <path d="M101.038 8.57837C103.034 8.57837 104.455 9.65357 104.906 11.5208C104.92 11.5784 104.877 11.6312 104.819 11.6312H102.348C102.315 11.6312 102.281 11.6072 102.267 11.5736C102.055 11.0408 101.652 10.7 100.995 10.7C100.107 10.7 99.4977 11.396 99.4977 12.7496C99.4977 14.1032 100.107 14.7992 100.995 14.7992C101.657 14.7992 102.046 14.4872 102.267 13.9256C102.281 13.892 102.31 13.868 102.348 13.868H104.819C104.877 13.868 104.92 13.9256 104.906 13.9784C104.455 15.788 103.03 16.9208 101.038 16.9208C98.6531 16.9208 96.9688 15.3224 96.9688 12.7496C96.9688 10.1768 98.6531 8.57837 101.038 8.57837Z"></path>
        <path d="M74.2852 6.21222V7.77222C74.2852 7.83462 74.3523 7.87782 74.4099 7.85382L77.1644 6.69702C77.198 6.68262 77.222 6.64902 77.222 6.61542V4.88742C77.222 4.82022 77.1548 4.77702 77.0924 4.80582L74.3379 6.13062C74.3092 6.14502 74.2852 6.17862 74.2852 6.21222Z"></path>
    </svg>
