<svg id="Capa_1" data-name="Capa 1" xmlns="http://www.w3.org/2000/svg" xmlns:xlink="http://www.w3.org/1999/xlink" viewBox="0 0 736.58 234.38"><defs><style>.cls-1,.cls-10,.cls-8{fill:none;}.cls-2{clip-path:url(#clip-path);}.cls-3{opacity:0.3;}.cls-4{clip-path:url(#clip-path-3);}.cls-11,.cls-5{fill:#fff;}.cls-6{clip-path:url(#clip-path-4);}.cls-7{clip-path:url(#clip-path-5);}.cls-8{stroke:#000;}.cls-10,.cls-11,.cls-8{stroke-miterlimit:10;}.cls-10,.cls-8{stroke-width:0.14px;}.cls-9{clip-path:url(#clip-path-7);}.cls-10,.cls-11{stroke:#fff;}.cls-11{stroke-width:2.93px;}</style><clipPath id="clip-path" transform="translate(-29.42 -25.37)"><rect class="cls-1" width="793.7" height="283.46"/></clipPath><clipPath id="clip-path-3" transform="translate(-29.42 -25.37)"><rect class="cls-1" x="29.42" y="67.27" width="146.43" height="153.62"/></clipPath><clipPath id="clip-path-4" transform="translate(-29.42 -25.37)"><rect class="cls-1" x="29.28" y="25.23" width="146.72" height="234.6"/></clipPath><clipPath id="clip-path-5" transform="translate(-29.42 -25.37)"><rect class="cls-1" x="86.26" y="25.37" width="88.24" height="28.91"/></clipPath><clipPath id="clip-path-7" transform="translate(-29.42 -25.37)"><rect class="cls-1" x="80.3" y="98.38" width="31.5" height="30.81"/></clipPath></defs><title>logo_horizontal_white</title><g class="cls-2"><g class="cls-4"><path class="cls-5" d="M63.77,70.78C69.87,68,121,57.88,164,93.11c13.36,10.94,12.57,24.33,11,32.92-3.45,19.08-27.59,27.83-28.85,28.06,0,0-5.6,5.1-10.76,7.12s-7.74,2.68-5.25,5.84,12.38,22.77,16.27,27a146.4,146.4,0,0,0,21.79,20.27c3.45,2.66,3.15,5.17,2.83,6.15-.49.27-2.86,1.29-6.09-2.8a56.83,56.83,0,0,0-10.8-9.72c-.66-.35-9.35-5-12.89-8.24s-5.56-7.91-8.94-10.3c-2.93-2.08-1.53-10-8.68-16.93-1.79-1.73-3.21,1.4-4.51.1a9.37,9.37,0,0,0-6.81-3.16c-4.21,0-8.93,1.69-11.6,1-.15-.24.63-1.28,6.14-7.63,5.06-5.82,4-5.23,6-7.74,1.63-2,4.82,0,1.56-3.71-4.34-5-5.3-21.09-5.2-22.43C110,118.49,74.7,93.52,72,104.27c-2.93,11.5-12.72,17.26-12.72,17.26-1.33.48-3.62,6.56-5.72,14.82-2.26,8.88-16.85,2.94-16.71-2.62.09-3.86.83-21.87.5-26.53s-2-7.48-.41-15.82c0,0,.2-5.55.44-6.71s-6.44-1-7.92-6.47c0,0,13.21-.26,16.3-1.48s12-3.11,18.05-5.94" transform="translate(-29.42 -25.37)"/></g><g class="cls-6"><path class="cls-1" d="M109.27,128.91C110,118.49,74.7,93.52,72,104.27c-2.93,11.5-12.73,17.26-12.73,17.26-1.32.48-3.61,6.56-5.71,14.82-2.26,8.88-16.85,2.94-16.71-2.62.09-3.86.83-21.87.5-26.53s-2-7.48-.41-15.82c0,0,.2-5.55.44-6.71s-6.44-1-7.92-6.47c0,0,13.21-.26,16.3-1.48s12-3.11,18.05-5.94S121,57.88,164,93.11c13.36,10.94,12.57,24.33,11,32.92-3.45,19.08-27.59,27.83-28.85,28.06,0,0-5.6,5.1-10.76,7.12s-7.74,2.68-5.25,5.84,12.38,22.77,16.27,27a146.4,146.4,0,0,0,21.79,20.27c3.45,2.66,3.15,5.17,2.83,6.15-.49.27-2.86,1.29-6.09-2.8a56.83,56.83,0,0,0-10.8-9.72c-.66-.35-9.35-5-12.89-8.24s-5.56-7.91-8.94-10.3c-2.93-2.08-1.53-10-8.68-16.93-1.79-1.74-3.21,1.4-4.51.1a9.37,9.37,0,0,0-6.81-3.16c-4.21,0-8.93,1.69-11.6,1-.14-.24.63-1.28,6.14-7.63,5.06-5.82,4-5.23,6-7.74,1.63-2,4.82,0,1.56-3.71C110.13,146.37,109.17,130.25,109.27,128.91Z" transform="translate(-29.42 -25.37)"/><path class="cls-5" d="M89.15,194.58A6.08,6.08,0,0,1,92,191.45c.46-.19,4.42-1.67,5.25-3.24.54-1-2.33-1.68-2.59-1.94-.89-.92-5-.4-6.83.72-1.37.85-8.32,7.65-9.63,9.78-3.53,5.75-5.91,13.78-10.42,17.78-6.14,5.43-2.52,7-15.54,24.74,0,0-14.29,18.47-1.46,20.46A105.11,105.11,0,0,0,64.44,253c.2-.13.21-.41.39-.57.56-.48,1.92-1.7,1.42-2.29-1-1.21-3.43-.09-4.79.18-1.19.24-4.38.94-5.89,1.37-5.88,1.68-4.22-3-2.73-4,1-.64,1.81-3.18,2.58-4,.38-.41,2.33-4.18,2.59-4.67l7.33-9.2c2-3.74,12.56-13.53,15.36-22.42.16,0,0-8.59,3.84-11.22.43-.95,4.23-1,4.61-1.62" transform="translate(-29.42 -25.37)"/><path class="cls-1" d="M89.15,194.58A6.08,6.08,0,0,1,92,191.45c.46-.19,4.42-1.67,5.25-3.24.54-1-2.33-1.68-2.59-1.94-.89-.92-5-.4-6.83.72-1.37.85-8.32,7.65-9.63,9.78-3.53,5.75-5.91,13.78-10.42,17.78-6.14,5.43-2.52,7-15.54,24.74,0,0-14.29,18.47-1.46,20.46A105.11,105.11,0,0,0,64.44,253c.2-.13.21-.41.39-.57.56-.48,1.92-1.7,1.42-2.29-1-1.21-3.43-.09-4.79.18-1.19.24-4.38.94-5.89,1.37-5.88,1.68-4.22-3-2.73-4,1-.64,1.81-3.18,2.58-4,.38-.41,2.33-4.18,2.59-4.67l7.33-9.2c2-3.74,12.56-13.53,15.36-22.42.16,0,0-8.59,3.84-11.22C85,195.25,88.77,195.17,89.15,194.58Z" transform="translate(-29.42 -25.37)"/></g><g class="cls-7"><path d="M174.37,45.22l.14,0-.14,0" transform="translate(-29.42 -25.37)"/><path class="cls-5" d="M109.82,51.46A11,11,0,0,1,106.51,54a2.55,2.55,0,0,1-2.67-.3l-1.19-1.54a1.06,1.06,0,0,0-.45-.33l-.38-.14.32-.9a5.26,5.26,0,0,0,1,.44.82.82,0,0,1,.51.42c1,2,1.73,1.34,1.83,1.37,1.39-.3,4-3.1,5.12-4.37a2.14,2.14,0,0,0,.55-1.38c.1-3.35,2.66.69,3.89,2.83a.43.43,0,0,0,.8-.16,34.78,34.78,0,0,1,.87-4.3,2.41,2.41,0,0,1,.68-1.11c6.55-6.24,23.72-6.59,36.81-5a68.47,68.47,0,0,1,20.16,5.67c-23.8-7.39-41-4-46-3a33.17,33.17,0,0,0-8,3c-1.75.76-2.23,2.62-2.06,4.75.52,6.57-2.46,3.67-2.29,4-2.24-2.84-4.32-3-5.31-2.87a1.32,1.32,0,0,0-.86.41" transform="translate(-29.42 -25.37)"/><path class="cls-5" d="M100.51,51.11c-.13-.07-.17-.16-.31-.36l-.1-.33c0-.38-.42-.28-.73-.13a1,1,0,0,1-.34.1l-1.48.17a2.11,2.11,0,0,1-.53-.15l-.23-.12a.66.66,0,0,1-.37-.64L96.63,45A1.59,1.59,0,0,0,96,43.6h0a1,1,0,0,0-.76-.18L86.48,44.8l-.21-.5,7.14-3.95a1.27,1.27,0,0,0,.7-1.05,19.37,19.37,0,0,1,1.07-7.23c2-5.24,7.89-6.5,13.66-6.69,5-.16,10.77,1.76,12.79,5.33a16.36,16.36,0,0,1,2,7.76,1,1,0,0,1-1.23.94c-2.63-.79-8.94-2.42-13.71-1.42a56.51,56.51,0,0,0-11.79,4.06.23.23,0,0,0-.13.22h0a1.65,1.65,0,0,0,.48,1c1.9,1.9-.24,5.64.57,6a2.79,2.79,0,0,0,1.8-.23.64.64,0,0,1,.81.19,4.54,4.54,0,0,0,1.76,1.57l-.33.9-.6-.21Z" transform="translate(-29.42 -25.37)"/></g><g class="cls-6"><path class="cls-1" d="M174.36,45.22a68.47,68.47,0,0,0-20.16-5.67c-13.09-1.61-30.25-1.26-36.81,5a2.41,2.41,0,0,0-.68,1.11,34.78,34.78,0,0,0-.87,4.3.43.43,0,0,1-.8.16c-1.23-2.14-3.79-6.18-3.89-2.83a2.14,2.14,0,0,1-.55,1.38c-1.12,1.27-3.73,4.07-5.12,4.37-.1,0-.86.62-1.83-1.37a.82.82,0,0,0-.51-.42,5.26,5.26,0,0,1-1-.44,4.54,4.54,0,0,1-1.76-1.57.64.64,0,0,0-.81-.19,2.79,2.79,0,0,1-1.8.23c-.81-.32,1.33-4.06-.57-6a1.65,1.65,0,0,1-.48-1h0a.23.23,0,0,1,.13-.22A56.51,56.51,0,0,1,108.64,38c4.78-1,11.08.63,13.71,1.42a1,1,0,0,0,1.23-.94,16.36,16.36,0,0,0-2-7.76c-2-3.57-7.75-5.49-12.79-5.33-5.77.19-11.67,1.45-13.66,6.69a19.55,19.55,0,0,0-1.07,7.22,1.27,1.27,0,0,1-.7,1.06L86.26,44.3l.22.5,8.7-1.39a1,1,0,0,1,.77.18h0A1.59,1.59,0,0,1,96.63,45l-.22,4.68a.69.69,0,0,0,.38.64l.23.12a2.11,2.11,0,0,0,.53.15L99,50.39a1,1,0,0,0,.34-.1c.31-.15.7-.25.73.13l.1.33c.14.2.18.29.31.36l.7.37.61.21.38.14a1.06,1.06,0,0,1,.45.33l1.19,1.54a2.55,2.55,0,0,0,2.67.3,10.89,10.89,0,0,0,3.31-2.54,1.32,1.32,0,0,1,.86-.41c1-.09,3.07,0,5.31,2.87" transform="translate(-29.42 -25.37)"/><path class="cls-8" d="M174.51,45.26h0l-.14,0" transform="translate(-29.42 -25.37)"/><path class="cls-8" d="M174.37,45.22l.14,0" transform="translate(-29.42 -25.37)"/><line class="cls-8" x1="144.95" y1="19.85" x2="144.94" y2="19.85"/><path class="cls-1" d="M116,54l0,0c-.17-.32,2.81,2.58,2.29-4-.17-2.13.31-4,2.06-4.75a33.17,33.17,0,0,1,8-3c5.07-1,22.21-4.34,46,3" transform="translate(-29.42 -25.37)"/></g><g class="cls-9"><path class="cls-5" d="M110.42,115.34c0,.23-1.31,13.5-1.34,13.85a11,11,0,0,0-1.13-4.67c-.83-6.12,4.58-13.52-27.65-25.88l.1-.26c1.6.34,18.92,4.3,28.57,14.06a18.09,18.09,0,0,1,2.78.86c.35.27-1.35,1.8-1.33,2" transform="translate(-29.42 -25.37)"/></g><g class="cls-6"><path class="cls-10" d="M108,124.52c-.83-6.12,4.58-13.52-27.65-25.88" transform="translate(-29.42 -25.37)"/><path class="cls-10" d="M109.08,129.21v0a11,11,0,0,0-1.13-4.67" transform="translate(-29.42 -25.37)"/><path class="cls-10" d="M80.27,98.35l.13,0c1.6.34,18.93,4.3,28.57,14.06a18.09,18.09,0,0,1,2.78.86c.35.27-1.35,1.8-1.33,2s-1.31,13.5-1.34,13.85" transform="translate(-29.42 -25.37)"/></g><line class="cls-11" x1="189.58" y1="154.29" x2="736.58" y2="154.29"/><path class="cls-5" d="M248.43,156.81l-1,4a20.1,20.1,0,0,1-9.29,1.95,34.89,34.89,0,0,1-6.11-.65,17.55,17.55,0,0,1-5.12-2.3,14.37,14.37,0,0,1-3.37-3.33,15,15,0,0,1-3-9.28,21,21,0,0,1,1.23-7.5,14.46,14.46,0,0,1,4.17-5.82q4.93-4.24,13.24-4.24a20.16,20.16,0,0,1,9.51,2.23c-.14.53-.31,1.25-.51,2.17s-.39,1.78-.57,2.58H247a9.46,9.46,0,0,0-3.42-3,9.16,9.16,0,0,0-4.36-1.12,9.39,9.39,0,0,0-6.15,2,11.89,11.89,0,0,0-3.63,5.23,19.89,19.89,0,0,0-1.16,6.79,15.6,15.6,0,0,0,2.75,9.51,9.89,9.89,0,0,0,3.76,2.93,11.24,11.24,0,0,0,4.66,1,11.71,11.71,0,0,0,4.47-1,13.09,13.09,0,0,0,3.95-2.47Z" transform="translate(-29.42 -25.37)"/><path class="cls-5" d="M278.82,130.16c1.81.2,3.09.3,3.81.3s2-.1,3.82-.3c0,.94-.09,2.3-.2,4.08s-.17,3.24-.17,4.36-.07,3-.07,5.47v8.86q0,.94,0,2.91c0,1.32,0,2.31,0,3l2.6-.15q1.9,0,8.14-.49a8.8,8.8,0,0,0-.16,2,9.08,9.08,0,0,0,.16,2l-7.93-.28c-.7,0-1.76,0-3.18.07s-2.47.07-3.15.07c-.86,0-2.17,0-3.9.14q.43-6,.44-15.19c0-.63,0-1.57,0-2.81s0-2.18,0-2.81c0-1.15,0-2.88-.12-5.17s-.14-4-.16-5.12Z" transform="translate(-29.42 -25.37)"/><path class="cls-5" d="M355.85,137c0,.49,0,1.26,0,2.3s0,1.82,0,2.32,0,1.44-.07,2.59-.07,2-.07,2.58a38.64,38.64,0,0,1-.93,8.36,9.42,9.42,0,0,1-4,5.19,14.9,14.9,0,0,1-8.86,2.45,22.58,22.58,0,0,1-5.77-.73,12.22,12.22,0,0,1-4.8-2.48,9.23,9.23,0,0,1-2.89-4.65,10.45,10.45,0,0,1-.42-2.51,25,25,0,0,1-.14-3.24c0-1,0-2,0-3.11s-.05-2-.05-2.65v-5.91c0-.57,0-1.46,0-2.67s0-2.09,0-2.66c0-.21,0-.53,0-1s0-.79,0-1c1.84.2,3.13.3,3.88.3a36.78,36.78,0,0,0,3.75-.3,11,11,0,0,1-.09,1.13c-.06.51-.1.91-.13,1.18q-.34,6.1-.35,10.95c0,4.26.1,7.22.28,8.86a18.2,18.2,0,0,0,.89,3.17,6.22,6.22,0,0,0,1.63,2.15,7.44,7.44,0,0,0,5.34,2,9.16,9.16,0,0,0,5.18-1.31A9.34,9.34,0,0,0,351.1,154q.79-2.1.79-9.72,0-9.42-.37-14.12a9.63,9.63,0,0,0,4.77,0c-.05.34-.1.81-.14,1.4s-.09,1.22-.13,1.88-.06,1.23-.07,1.7S355.89,136.23,355.85,137Z" transform="translate(-29.42 -25.37)"/><path class="cls-5" d="M402.22,145.28a8.61,8.61,0,0,1,5.83,2.16,7.22,7.22,0,0,1,2.59,5.63,9,9,0,0,1-2.52,6.26q-1.65,1.81-5.67,2.67a19.38,19.38,0,0,1-3.18.21c-.74,0-1.87,0-3.4-.07s-2.67-.07-3.44-.07-2.27,0-4.1.14c.19-1.44.33-3.61.42-6.49q.15-8.47.15-12.81,0-2.11-.36-12.75c2.39.1,4.15.14,5.26.14.77,0,1.91,0,3.41-.07s2.62-.07,3.36-.07a14.48,14.48,0,0,1,4.64.71,7,7,0,0,1,3.36,2.33,6.65,6.65,0,0,1,1.28,4.24,6.43,6.43,0,0,1-2.19,5.05,10.29,10.29,0,0,1-5.44,2.44Zm-4.4,14.26a4.56,4.56,0,0,0,4.19-2.08,7.51,7.51,0,0,0,1.3-4.11q0-6.63-6.21-6.63a15.81,15.81,0,0,0-1.58.07c0,1.49-.07,3.75-.07,6.77,0,.64,0,1.62,0,2.94s0,2.3,0,3l1.18,0Zm3.12-16.63a6,6,0,0,0,2-4.82,7.51,7.51,0,0,0-.43-2.32,3.52,3.52,0,0,0-1.08-1.79,5.5,5.5,0,0,0-3.54-1.22,13,13,0,0,0-2.23.15q-.14,4.17-.14,6.32v4.84a20.32,20.32,0,0,0,3.15-.2A5.71,5.71,0,0,0,400.94,142.91Z" transform="translate(-29.42 -25.37)"/><path class="cls-5" d="M486.46,130.46q1.05,0,3.81-.3c0,.74-.08,1.84-.17,3.31s-.16,2.55-.18,3.25v6.33c1.09,0,2.37,0,3.83.07s2.58.09,3.36.09,2,0,3.41-.09,2.68-.07,3.73-.07v-6.61q0-2.33-.3-6.28,2.76.3,3.9.3c.65,0,1.94-.1,3.89-.3-.05.75-.14,1.8-.26,3.15s-.18,2.44-.18,3.27c-.1,4.9-.14,8.52-.14,10.86q0,9.87.43,14.77l-1.93-.12c-.82-.06-1.42-.09-1.81-.09s-1.21,0-2.14.09l-2,.12c.18-2.88.33-5.05.44-6.49.09-3,.14-5.21.14-6.7v-2.23q-4.75-.14-7.14-.14t-7.19.14v5.63q0,4.4.35,9.79l-1.84-.12c-.84-.06-1.44-.09-1.83-.09s-1.14,0-2.06.09l-2.11.12q.66-7.53.65-17.21,0-8.61-.44-14.84C484.48,130.36,485.75,130.46,486.46,130.46Z" transform="translate(-29.42 -25.37)"/><path class="cls-5" d="M551.13,136.44c0,1-.08,2.47-.16,4.38s-.14,3.49-.14,4.76,0,3,.14,5,.13,3.59.16,4.68c0,.79.08,1.95.17,3.48s.16,2.68.18,3.43l-1.85-.12c-.83-.06-1.44-.09-1.82-.09a41,41,0,0,0-4.17.21q.65-7.53.65-17.21v-2.51c0-1,0-2.1,0-3.27s0-2.08,0-2.71q-.13-4.11-.35-6.35c1.84.2,3.11.3,3.82.3s2-.1,3.81-.3Q551.19,134.34,551.13,136.44Z" transform="translate(-29.42 -25.37)"/><path class="cls-5" d="M588,130.3c.69,0,1.69,0,3-.07s2.27-.07,2.92-.07a29.3,29.3,0,0,1,5,.3,8,8,0,0,1,4.66,2.73,7.61,7.61,0,0,1,1.74,5,9.54,9.54,0,0,1-2.51,6.91,8.46,8.46,0,0,1-2.7,2,19.61,19.61,0,0,1-3.86,1,22.37,22.37,0,0,1-2.88.2c-1.28,0-2.14.05-2.59.1,0,.7,0,1.78.07,3.22s.07,2.52.07,3.25q.15,4.92.28,7.35l-1.93-.12Q588,162,587.34,162c-.4,0-1,0-1.9.09l-1.91.12c0-.29,0-.71.07-1.25s0-.94.07-1.2c.2-2.19.29-3.89.29-5.11v-7.14q0-4.19-.14-12.51c0-2.12-.05-3.74-.15-4.84C584.63,130.26,586.07,130.3,588,130.3Zm2.88,8.14v4c0,1.48,0,2.61-.07,3.37a19.15,19.15,0,0,0,3.1-.35q3.95-1,4-6.35,0-3.81-2.09-5.46c-.63-.53-2.22-.79-4.75-.79Z" transform="translate(-29.42 -25.37)"/><path class="cls-5" d="M642.22,136.44c0,1-.08,2.47-.16,4.38s-.14,3.49-.14,4.76.05,3,.14,5,.14,3.59.16,4.68c0,.79.08,1.95.17,3.48s.16,2.68.18,3.43l-1.85-.12c-.83-.06-1.44-.09-1.82-.09a41,41,0,0,0-4.17.21q.64-7.53.65-17.21v-2.51q0-1.52,0-3.27c0-1.18-.06-2.08-.06-2.71q-.13-4.11-.35-6.35c1.84.2,3.11.3,3.82.3s2-.1,3.81-.3C642.38,133,642.27,135,642.22,136.44Z" transform="translate(-29.42 -25.37)"/><path class="cls-5" d="M700.61,156.81l-1,4a20,20,0,0,1-9.28,1.95,34.89,34.89,0,0,1-6.11-.65,17.43,17.43,0,0,1-5.12-2.3,14.37,14.37,0,0,1-3.37-3.33,15,15,0,0,1-3-9.28,21.21,21.21,0,0,1,1.22-7.5,14.58,14.58,0,0,1,4.18-5.82q4.94-4.24,13.24-4.24a20.16,20.16,0,0,1,9.51,2.23c-.15.53-.32,1.25-.51,2.17s-.39,1.78-.57,2.58h-.65a9.46,9.46,0,0,0-3.42-3,9.16,9.16,0,0,0-4.36-1.12,9.39,9.39,0,0,0-6.15,2,11.89,11.89,0,0,0-3.63,5.23,19.89,19.89,0,0,0-1.16,6.79,15.66,15.66,0,0,0,2.74,9.51A9.92,9.92,0,0,0,687,159a11.23,11.23,0,0,0,4.65,1,11.72,11.72,0,0,0,4.48-1A12.91,12.91,0,0,0,700,156.6Z" transform="translate(-29.42 -25.37)"/><path class="cls-5" d="M759.52,158.67a19.24,19.24,0,0,1-12.9,4.4q-8.05,0-12.75-4.68-4.61-4.44-4.6-12a15.73,15.73,0,0,1,5.55-12.53,19.54,19.54,0,0,1,12.89-4.33,18.08,18.08,0,0,1,10.86,3.18,13.93,13.93,0,0,1,5,6.05,18.71,18.71,0,0,1,1.45,7.42,16.93,16.93,0,0,1-1.44,6.87A15.84,15.84,0,0,1,759.52,158.67Zm-4.26-3.74a20.34,20.34,0,0,0,2-9.65,18.65,18.65,0,0,0-1-6.2,11.11,11.11,0,0,0-3.28-4.92,8.26,8.26,0,0,0-5.55-1.91,8.68,8.68,0,0,0-5.26,1.59,10,10,0,0,0-3.3,3.88q-1.8,3.67-1.8,10a17.88,17.88,0,0,0,1,6.08,10.25,10.25,0,0,0,3.24,4.64,8.47,8.47,0,0,0,5.53,1.8Q752.2,160.26,755.26,154.93Z" transform="translate(-29.42 -25.37)"/></g></svg>