<svg xmlns="http://www.w3.org/2000/svg" viewBox="0 0 524.28 228.93"><defs><style>.cls-1{fill:#003a8e}.cls-2{fill:#00b764}</style></defs><g id="Capa_2" data-name="Capa 2"><g id="Capa_1-2" data-name="Capa 1"><path class="cls-1" d="M147.1 89V53a5.43 5.43 0 0 1 5.43-5.43A5.43 5.43 0 0 1 158 53v36a5.43 5.43 0 0 1-5.43 5.43A5.43 5.43 0 0 1 147.1 89m43.18-31.15a16.76 16.76 0 0 1 7.72 1.71 12.33 12.33 0 0 1 5.33 5.23 18.5 18.5 0 0 1 2 9v15.68a5 5 0 0 1-5 5h-.47a5 5 0 0 1-5-5v-14c0-2.91-.64-5-1.91-6.44a7 7 0 0 0-5.4-2.08 9.46 9.46 0 0 0-4.46 1 7.23 7.23 0 0 0-3.09 3.19 12.06 12.06 0 0 0-1.1 5.5v12.83a5 5 0 0 1-5 5h-.47a5 5 0 0 1-5-5V63.38a5 5 0 0 1 5-5 5 5 0 0 1 5 5v5l-.1-.16A5 5 0 0 1 179 62a13.5 13.5 0 0 1 3-2.21 17.2 17.2 0 0 1 8.28-1.94M279.81 95A23.2 23.2 0 0 1 269 92.59a17.77 17.77 0 0 1-7.23-6.59 18 18 0 0 1-2.55-9.56 18.3 18.3 0 0 1 2.52-9.62 17.93 17.93 0 0 1 6.87-6.57 21.57 21.57 0 0 1 19.39-.16 16.9 16.9 0 0 1 6.74 6.44 19.4 19.4 0 0 1 2.48 10c0 .4 0 .86-.07 1.37s-.09 1-.13 1.45h-29.28v-6.08h23.81l-4 1.81a10.1 10.1 0 0 0-1.14-4.89 8.46 8.46 0 0 0-3.16-3.26 9.15 9.15 0 0 0-4.69-1.17 9.35 9.35 0 0 0-4.73 1.17 8.2 8.2 0 0 0-3.18 3.29 10.3 10.3 0 0 0-1.14 5v1.61a10.13 10.13 0 0 0 1.3 5.19 8.5 8.5 0 0 0 3.69 3.42 12.45 12.45 0 0 0 5.6 1.18 13.6 13.6 0 0 0 5.06-.87 12 12 0 0 0 1.42-.68 4.18 4.18 0 0 1 5.13.83 4.18 4.18 0 0 1-.84 6.42 17 17 0 0 1-2.39 1.17 23 23 0 0 1-8.67 1.51m46.34-37.15a16.8 16.8 0 0 1 7.68 1.71 12.33 12.33 0 0 1 5.33 5.23 18.5 18.5 0 0 1 1.95 9v15.68a5 5 0 0 1-5 5h-.47a5 5 0 0 1-5-5v-14c0-2.91-.64-5-1.91-6.44a7 7 0 0 0-5.4-2.08 9.46 9.46 0 0 0-4.46 1 7.23 7.23 0 0 0-3.09 3.19 11.94 11.94 0 0 0-1.1 5.5v12.83a5 5 0 0 1-5 5h-.47a5 5 0 0 1-5-5V63.38a5 5 0 0 1 5-5 5 5 0 0 1 5 5v5l-.1-.16a5 5 0 0 1 .7-6.18 13.6 13.6 0 0 1 3.08-2.25 17.3 17.3 0 0 1 8.26-1.94m29.64-4.5a6.62 6.62 0 0 1-4.69-1.67 5.69 5.69 0 0 1 0-8.32 6.66 6.66 0 0 1 4.69-1.67 6.9 6.9 0 0 1 4.7 1.57 5.13 5.13 0 0 1 1.81 4.06 5.72 5.72 0 0 1-1.78 4.32 6.52 6.52 0 0 1-4.73 1.71"/><rect class="cls-1" x="350.56" y="58.38" width="10.46" height="36.08" rx="5.23"/><path class="cls-1" d="M388.66 95a23.25 23.25 0 0 1-10.84-2.41 17.74 17.74 0 0 1-7.2-6.61 18 18 0 0 1-2.55-9.56 18.3 18.3 0 0 1 2.51-9.62 17.9 17.9 0 0 1 6.88-6.57 21.55 21.55 0 0 1 19.41-.14 16.84 16.84 0 0 1 6.74 6.44 19.4 19.4 0 0 1 2.48 10c0 .4 0 .86-.07 1.37s-.09 1-.13 1.45h-29.31v-6.08h23.81l-4 1.81a10 10 0 0 0-1.14-4.89 8.37 8.37 0 0 0-3.15-3.26 9.2 9.2 0 0 0-4.7-1.17 9.37 9.37 0 0 0-4.73 1.17 8.25 8.25 0 0 0-3.18 3.29 10.4 10.4 0 0 0-1.14 5v1.61a10 10 0 0 0 1.29 5.17 8.5 8.5 0 0 0 3.68 3.42 12.45 12.45 0 0 0 5.6 1.18 13.7 13.7 0 0 0 5.07-.87 13 13 0 0 0 1.41-.68 4.17 4.17 0 0 1 5.13.83 4.18 4.18 0 0 1-.83 6.42 18 18 0 0 1-2.39 1.17 23 23 0 0 1-8.65 1.53m24.41-5.53V63.38a5 5 0 0 1 5-5 5 5 0 0 1 5 5v5.2l-.29-.6a4.91 4.91 0 0 1 .47-5.1 11.5 11.5 0 0 1 3.57-3.05 14.3 14.3 0 0 1 2.18-1 5 5 0 0 1 6.47 4.77v3.89l-1.2-.11h-1.14a9.82 9.82 0 0 0-6.94 2.45q-2.65 2.45-2.65 7.61v12a5 5 0 0 1-5 5h-.47a5 5 0 0 1-5-4.97"/><rect class="cls-1" x="441.7" y="58.38" width="10.46" height="36.08" rx="5.23"/><path class="cls-1" d="M473 95a16.66 16.66 0 0 1-7.24-1.44 11 11 0 0 1-4.63-3.92 10.63 10.63 0 0 1 0-11.2 10.26 10.26 0 0 1 5-3.79 24.2 24.2 0 0 1 8.87-1.38h9.59v6.11h-8.45q-3.69 0-5.06 1.2a3.85 3.85 0 0 0-1.38 3 3.79 3.79 0 0 0 1.58 3.19 7.1 7.1 0 0 0 4.36 1.23 9 9 0 0 0 4.69-1.24 7.18 7.18 0 0 0 3-3.66l1.67 4.79a9.35 9.35 0 0 1-4.16 5.3A14.93 14.93 0 0 1 473 95m11-5.43v-2.15l-.67-1.54V73.27A6.73 6.73 0 0 0 481.3 68q-2-1.87-6.27-1.88a18.4 18.4 0 0 0-5.67.91c-.49.16-1 .34-1.43.53a4.08 4.08 0 0 1-5.24-1.87 4.09 4.09 0 0 1 2-5.63A28 28 0 0 1 468 59a31.8 31.8 0 0 1 8.45-1.14q8.25 0 12.81 3.89t4.56 12.14v15.68a4.89 4.89 0 0 1-4.9 4.89 4.89 4.89 0 0 1-4.92-4.89M162.52 183a38.6 38.6 0 0 1-10.8-1.51 31 31 0 0 1-4.66-1.74 4.3 4.3 0 0 1-2.08-5.67l.17-.37a4.33 4.33 0 0 1 5.83-2.09 31 31 0 0 0 3.26 1.28 26.2 26.2 0 0 0 8.35 1.38 17.3 17.3 0 0 0 5.2-.64 6 6 0 0 0 2.91-1.77 4 4 0 0 0 .94-2.62 3.53 3.53 0 0 0-1.47-3 12.1 12.1 0 0 0-3.89-1.82q-2.42-.69-5.33-1.34c-1.95-.42-3.89-1-5.84-1.57a24.7 24.7 0 0 1-5.33-2.42 11.76 11.76 0 0 1-3.92-3.89 11.4 11.4 0 0 1-1.51-6.17 13 13 0 0 1 2.18-7.34 14.9 14.9 0 0 1 6.57-5.3 26.9 26.9 0 0 1 11-2 37 37 0 0 1 8.72 1 29 29 0 0 1 3.74 1.18 4.29 4.29 0 0 1 2.34 5.62l-.13.32a4.34 4.34 0 0 1-5.67 2.35 25 25 0 0 0-2.63-.88 24 24 0 0 0-6.44-.91 15.2 15.2 0 0 0-5.16.74 6.1 6.1 0 0 0-2.88 1.91 4.4 4.4 0 0 0-.88 2.72 3.47 3.47 0 0 0 1.48 2.91 11.4 11.4 0 0 0 3.89 1.78q2.42.68 5.33 1.34c1.95.45 3.89 1 5.84 1.55a22.7 22.7 0 0 1 5.33 2.34 12 12 0 0 1 3.92 3.89 11.3 11.3 0 0 1 1.51 6.11 12.74 12.74 0 0 1-2.21 7.24 15.56 15.56 0 0 1-6.61 5.3 26.7 26.7 0 0 1-11.07 2.09m31.86-41.88a6.62 6.62 0 0 1-4.68-1.66 5.75 5.75 0 0 1-1.82-4.49 5.4 5.4 0 0 1 1.8-3.84 6.63 6.63 0 0 1 4.7-1.68 6.9 6.9 0 0 1 4.69 1.58 5.12 5.12 0 0 1 1.81 4.06 5.72 5.72 0 0 1-1.78 4.32 6.52 6.52 0 0 1-4.72 1.71"/><rect class="cls-1" x="189.14" y="146.15" width="10.46" height="36.08" rx="5.23"/><path class="cls-1" d="M255.54 145.62a16.4 16.4 0 0 1 7.61 1.71 12.33 12.33 0 0 1 5.23 5.23 18.8 18.8 0 0 1 1.91 9v15.66a5 5 0 0 1-5 5h-.47a5 5 0 0 1-5-5v-14.03c0-2.91-.6-5.05-1.81-6.44a6.4 6.4 0 0 0-5.1-2.08 8.1 8.1 0 0 0-4.09 1 6.93 6.93 0 0 0-2.82 3.12 12.16 12.16 0 0 0-1 5.3v13.11a5 5 0 0 1-5 5h-.47a5 5 0 0 1-5-5v-14.01c0-2.91-.6-5.05-1.78-6.44a6.29 6.29 0 0 0-5.06-2.08 8.14 8.14 0 0 0-4.1 1 7 7 0 0 0-2.81 3.12 12.15 12.15 0 0 0-1 5.3v13.11a5 5 0 0 1-5 5h-.47a5 5 0 0 1-5-5v-26.05a5 5 0 0 1 5-5 5 5 0 0 1 5 5V156v-.07a5 5 0 0 1 .57-6.18 12.7 12.7 0 0 1 2.94-2.23 15.93 15.93 0 0 1 7.88-1.91 15.1 15.1 0 0 1 8.68 2.51 11.4 11.4 0 0 1 4.24 5.43 1.27 1.27 0 0 1-1.52 1.65 1.27 1.27 0 0 1-.76-1.86 14.5 14.5 0 0 1 5.08-5.25 16.9 16.9 0 0 1 9.12-2.47m24.14 44.63v-39.1a5 5 0 0 1 5-5 5 5 0 0 1 5 5v2.38l-.2 10.53v.4l.65 10.31v15.48a5 5 0 0 1-5 5h-.46a5 5 0 0 1-4.99-5m21.32-7.48a15.47 15.47 0 0 1-8-2 13.4 13.4 0 0 1-5.33-6.14 24.9 24.9 0 0 1-1.91-10.43 26.15 26.15 0 0 1 1.81-10.46 12.84 12.84 0 0 1 5.23-6.1 15.9 15.9 0 0 1 8.19-2 18.2 18.2 0 0 1 9.15 2.31 17.1 17.1 0 0 1 6.44 6.47 21.47 21.47 0 0 1 0 19.65 16.9 16.9 0 0 1-6.44 6.44 18.4 18.4 0 0 1-9.14 2.26m-1.82-8.58a9.1 9.1 0 0 0 4.67-1.21 9 9 0 0 0 3.28-3.46 12.14 12.14 0 0 0 0-10.69 8.76 8.76 0 0 0-7.95-4.63 9.13 9.13 0 0 0-4.69 1.21 8.6 8.6 0 0 0-3.29 3.42 12.5 12.5 0 0 0 0 10.69 8.65 8.65 0 0 0 3.3 3.48 9.23 9.23 0 0 0 4.69 1.19ZM326 177v-39.3a5.23 5.23 0 0 1 5.23-5.23 5.23 5.23 0 0 1 5.23 5.23V177a5.23 5.23 0 0 1-5.23 5.23A5.23 5.23 0 0 1 326 177m38 5.77a23.36 23.36 0 0 1-10.83-2.41 17.55 17.55 0 0 1-9.76-16.17 18.3 18.3 0 0 1 2.52-9.62 17.86 17.86 0 0 1 6.87-6.57 21.57 21.57 0 0 1 19.42-.14 16.9 16.9 0 0 1 6.78 6.44 19.4 19.4 0 0 1 2.48 10c0 .4 0 .86-.07 1.37s-.09 1-.13 1.44H352V161h23.81l-4 1.81a10 10 0 0 0-1.14-4.89 8.37 8.37 0 0 0-3.15-3.26 9.15 9.15 0 0 0-4.69-1.17 9.35 9.35 0 0 0-4.83 1.21 8.2 8.2 0 0 0-3.18 3.29 10.26 10.26 0 0 0-1.14 5v1.61a10.13 10.13 0 0 0 1.3 5.19 8.5 8.5 0 0 0 3.69 3.42 12.45 12.45 0 0 0 5.6 1.18 13.4 13.4 0 0 0 5.06-.88 12 12 0 0 0 1.42-.67 4.18 4.18 0 0 1 5.13.83 4.18 4.18 0 0 1-.84 6.42 17 17 0 0 1-2.39 1.17 23 23 0 0 1-8.65 1.51"/><path class="cls-2" d="M133.33 101.28c0 3 0 3 3 3 99.09 0 338.77-.11 356.92 0a6.92 6.92 0 0 0 6.08-2.85 2.7 2.7 0 0 1 .44-.55c2.79-2.17 3.38-4.64 2.48-8.25-1.29-5.17 3.2-10.78 8.77-12a11.09 11.09 0 0 1 12.53 7.06c.27.83.49 1.69.74 2.53V93c-.86 3.88-2.78 6.93-6.54 8.64a9.65 9.65 0 0 1-5.14.92 4.33 4.33 0 0 0-4 1.69c-1.73 2-3.61 3.86-5.37 5.83-2.15 2.42-4.94 3-8 2.94-1.23 0-242.07-.18-358.67-.18h-1.59c-1-.05-1.65.24-1.67 1.46s.58 1.6 1.73 1.59c9.52 0 41.74.07 45.73 0a6.26 6.26 0 0 1 5.14 2.22c1.25 1.4 2.59 2.74 3.71 4.24a5 5 0 0 0 4.68 2.12c5.93-.2 10.35 3.55 11.35 9.41a11.08 11.08 0 0 1-21.3 5.67 10.84 10.84 0 0 1-.48-6.4c1.12-4.75-1.8-8.56-6.73-8.65-5.76-.1-34.57 0-40.62 0-3.19 0-3.2 0-3.2 3.11Z"/><path class="cls-1" d="M194.6 131.05a4.42 4.42 0 0 0-4.52 4.4 4.67 4.67 0 0 0 4.69 4.51 4.61 4.61 0 0 0 4.49-4.52 4.29 4.29 0 0 0-4.66-4.39m322.95-39.56A4.11 4.11 0 0 0 513.2 87a4.43 4.43 0 0 0-4.54 4.4 4.62 4.62 0 0 0 4.55 4.63 4.38 4.38 0 0 0 4.34-4.54m-287.39 2.62a18.9 18.9 0 0 1-9.08-2.17 17.82 17.82 0 0 1-6.51-24.48 16.74 16.74 0 0 1 6.51-6.07 19.1 19.1 0 0 1 9.08-2.15 17 17 0 0 1 8.05 1.85 12.62 12.62 0 0 1 5.43 5.7 21.9 21.9 0 0 1 2 9.89 21.7 21.7 0 0 1-2 9.82 12.82 12.82 0 0 1-5.43 5.74 16.7 16.7 0 0 1-8.05 1.87m1.61 15.3a38.4 38.4 0 0 1-9.82-1.25 25 25 0 0 1-3.83-1.32 4.31 4.31 0 0 1-2.05-6A4.24 4.24 0 0 1 221.5 99a22 22 0 0 0 2.53 1 23.3 23.3 0 0 0 6.97 1q5.57 0 8.08-2.48c1.68-1.65 2.51-4.11 2.51-7.38v-5.57l.64-8.7v-.38l-.13-8.93v-3.49a4.29 4.29 0 0 1 4.29-4.29h1.35a4.29 4.29 0 0 1 4.26 4.29v25.75q0 10.07-5.24 14.82t-14.99 4.77m.47-23.88a10.5 10.5 0 0 0 4.9-1.11 8.1 8.1 0 0 0 3.35-3.11 8.8 8.8 0 0 0 1.21-4.63 8.7 8.7 0 0 0-1.21-4.68 8.27 8.27 0 0 0-3.35-3.09 11.44 11.44 0 0 0-9.79 0 8.94 8.94 0 0 0-3.35 12.4 8.4 8.4 0 0 0 3.39 3.11 10.5 10.5 0 0 0 4.85 1.11m215.57-32.47c-3 .77-4 .41-4.77-2.6-1.44-5.53 9.21-9.61 13.55-8.74 1.55.28-2.14 9.64-8.78 11.34"/><path class="cls-2" d="M87.48 228.93a14.93 14.93 0 0 1-8.13-5.64c-5.2-7.61-.12-18.66 9-19.61a13.1 13.1 0 0 1 7.28 1.24c.68.33 1.31.55 2 0 4.24-4 8.85-7.57 12.14-12.48 3.16-4.72 5.26-9.73 4.84-15.58-.17-2.37.06-2.46 2.41-3.05 1.16-.3 2.32-.6 3.44-1s1.63-.19 1.75 1.15c1 11-3.19 20-10.34 27.92a117 117 0 0 1-9 8.49 1.8 1.8 0 0 0-.73 2.11A12.77 12.77 0 0 1 93 228.67a4 4 0 0 0-.59.26Zm2.52-18.3a5.49 5.49 0 0 0-5.76 5.73 5.81 5.81 0 0 0 5.81 5.64 5.61 5.61 0 0 0 5.57-5.77 5.28 5.28 0 0 0-5.62-5.6M0 126.19a14.5 14.5 0 0 1 3.5-7.73 12.65 12.65 0 0 1 20.61 2.76 3.19 3.19 0 0 0 3.38 2c10.44-.06 16.83 0 27.27 0 1.1 0 2.28-.28 2.88 1.2.8 2 3.22 3.87 1.83 5.85-.52.74-1.39.52-2.13.52H26.82a2.24 2.24 0 0 0-2.41 1.48 12.64 12.64 0 0 1-13.78 7.28c-5.52-.87-9.49-5.19-10.4-11.26a5.4 5.4 0 0 0-.23-.79Zm13-4.86a5.63 5.63 0 0 0-5.83 5.52 5.55 5.55 0 0 0 5.63 5.87 5.7 5.7 0 1 0 .2-11.39M115.19 0l1.88.52a12.58 12.58 0 0 1 9.47 11.59 12.22 12.22 0 0 1-7.15 12 2.82 2.82 0 0 0-1.87 3c.06 9.08 0 18.17 0 27.25 0 2.23-.24 2.39-2.5 2a28 28 0 0 0-2.92-.21c-1.86-.08-2.18-.34-2.18-2.23 0-6.53-.09-24.37 0-26.76a3 3 0 0 0-1.86-3.16 12.62 12.62 0 0 1-3.73-19.79c2.11-2.39 4.92-3.52 7.92-4.25Zm4.26 12.72A5.68 5.68 0 0 0 113.79 7a5.92 5.92 0 0 0-5.73 5.75 5.68 5.68 0 0 0 5.76 5.8c3.36 0 5.63-2.35 5.63-5.83M72.8 35.46h-7.18a2.39 2.39 0 0 0-2.45 1.46C59.92 43 52.71 45.66 46.77 43a12.74 12.74 0 0 1-6.71-16.54c2-5.14 6.2-7.57 11.53-8 4.51-.37 9.75 2.94 11.63 7.32a3 3 0 0 0 3.29 2.14c4.3-.12 8.6 0 12.89 0A15.87 15.87 0 0 1 95.56 44v11.58a2.28 2.28 0 0 1-1.72 2.57 20 20 0 0 0-4.04 2.05c-1.48.87-1.77.72-1.78-1V44.51a8.93 8.93 0 0 0-1.35-5.29 8 8 0 0 0-6.84-3.78Zm-26.54-4.33c0 3.45 2.24 5.85 5.54 5.85a5.75 5.75 0 0 0 5.8-5.58 5.67 5.67 0 0 0-5.7-5.82 5.26 5.26 0 0 0-5.64 5.55m4.67 116.04H39.67c-5.07 0-8.46 3.44-8.51 8.52a5 5 0 0 1 0 .65c-.38 2.63.38 4.28 2.9 5.86a12.31 12.31 0 0 1 3.38 17.49 12.55 12.55 0 0 1-17.56 3.43c-4-2.84-6.17-6.78-5.62-11.76a12.34 12.34 0 0 1 7.9-10.54 2.07 2.07 0 0 0 1.5-2.19c0-2.87-.2-5.74.8-8.54 2.27-6.31 7.92-10.36 15.24-10.51 7-.15 14 0 21-.06a2 2 0 0 1 2.17 1.71 41 41 0 0 0 1.32 4c.63 1.72.55 1.9-1.24 1.91-3.95.04-7.95.03-12.02.03m-24 31a5.7 5.7 0 0 0 5.74-5.65 6 6 0 0 0-5.62-5.74 5.85 5.85 0 0 0-5.95 5.7 5.59 5.59 0 0 0 5.9 5.73Zm22.5-65.37c-7.61.18-11.36-2.57-17.18-6.4-5.25-3.46-9.13-8.35-13.34-12.88a2.25 2.25 0 0 0-2.65-.76A12.64 12.64 0 0 1 9.1 68.51c8.63-2.41 15.82 3.09 16.61 11.55a11 11 0 0 1-1.48 6.27c-.32.58-.72 1.12-.09 1.75 3.87 3.81 7 8.29 11.51 11.51a33.1 33.1 0 0 0 9.85 5c3.21 1 2.52.75 5.83.73 2.29 0 2.32-.12 2.39 2.15-.07 1 0 2.27-.18 3.44a2 2 0 0 1-2.44 1.93c-.7-.08-1.41-.04-1.67-.04M18.62 80.67a5.8 5.8 0 0 0-5.88-5.91 5.71 5.71 0 0 0-5.52 6.09A5.79 5.79 0 0 0 13 86.31a5.62 5.62 0 0 0 5.62-5.64m20.68-3.15V72.3a1.93 1.93 0 0 0-1.3-2c-5.24-2.43-8.22-7.33-7.77-12.6a12.82 12.82 0 0 1 9.82-11.48C48.23 44 56.61 51.43 55.6 59.84a12.79 12.79 0 0 1-7.46 10.35 2 2 0 0 0-1.24 2c0 3.15 0 6.31.05 9.46a7.69 7.69 0 0 0 7.43 7.59 7 7 0 0 0 1.5 0c1.41 0 2.22.57 1.68 2-.67 1.74-1.93 6.09-3.73 6a22 22 0 0 1-6-2 15.33 15.33 0 0 1-8.54-13.5c-.04-1.39.01-2.81.01-4.22m3.19-13.27c3.64-.06 6.29-2.46 6.26-5.66A6 6 0 0 0 43 52.84a5.86 5.86 0 0 0-5.85 5.92 5.61 5.61 0 0 0 5.34 5.49M82.73 190.5c-1.88 0-3.41.08-4.93 0a2.52 2.52 0 0 0-2.74 1.72 12.55 12.55 0 0 1-14.53 6.87 12.71 12.71 0 0 1 .66-24.82c5.87-1 11 1.38 13.65 6.64a3.26 3.26 0 0 0 3.45 2.05c3.52-.14 7.06.21 10.58-.2 3.16-.37 7-4.49 8.15-7.39.48-1.17 1-1.33 2.08-.78 1.31.67 3.47.43 4.84 1 1 .39 1.35.94.88 2-2.49 5.5-9.14 11.91-15.12 12.74a55 55 0 0 1-6.97.17m-13.52-3.64c0-3.48-2.24-5.79-5.61-5.78a5.66 5.66 0 0 0-5.73 5.63 5.74 5.74 0 0 0 5.83 5.74 5.47 5.47 0 0 0 5.51-5.59M107.4 58.7h2.09a21 21 0 0 1 2.52.18 26.23 26.23 0 0 1 22.37 21.27c.37 1.91.43 3.85.7 5.77V146a6 6 0 0 0-.14.73 28.6 28.6 0 0 1-1.57 7.93c-3.08 8.21-8.36 14.19-16.91 16.77a32.2 32.2 0 0 1-10.11 1.06 25.87 25.87 0 0 1-15.83-5.59 26.6 26.6 0 0 1-7-8.39 6.34 6.34 0 0 0-4.11-3.44 10 10 0 0 1-1.38-.49c-8.59-3.41-12.61-10.54-12.29-18.73a10 10 0 0 0-2.39-7.05 30.9 30.9 0 0 1-6.2-11.23 39 39 0 0 1-1-4.75 10.7 10.7 0 0 1-.17-2.19c0-2.33.21-6.09.33-6.68 2.64-12.19 9.22-21 21.46-24.91A6.9 6.9 0 0 0 82.33 75a26.5 26.5 0 0 1 16.4-14.73A34 34 0 0 1 104 59a20.6 20.6 0 0 1 3.4-.3m19.67 57V89a49 49 0 0 0-.4-6.39c-1.12-9-9-16.14-17.93-16s-15.63 3.75-19.42 12.18a13.06 13.06 0 0 1-9.1 7.79 19.5 19.5 0 0 0-10.92 7.35c-4.19 5.47-6.3 11.57-5.14 18.53a24.1 24.1 0 0 0 6 12 13.9 13.9 0 0 1 3.58 10.73c-.49 6 2.31 10.22 8 12.19l1 .35a12.9 12.9 0 0 1 6.69 5.07c.62.91 1.17 1.86 1.74 2.81a17.45 17.45 0 0 0 12 8.51 26.5 26.5 0 0 0 7.44.29 16.12 16.12 0 0 0 10.29-4.49c4.35-4.26 6.2-9.56 6.23-15.53-.03-9.54-.06-19.09-.06-28.65Z"/></g></g></svg>
