<svg id="Capa_1" data-name="Capa 1" xmlns="http://www.w3.org/2000/svg" viewBox="0 0 180 68.61">
  <title>logo-traza-web111</title>
  <g>
    <path d="M17.51,9H5.89a3.9,3.9,0,0,1,0-7.79H37.66a3.9,3.9,0,0,1,0,7.79H26V45.24a4.24,4.24,0,0,1-8.47,0Z" transform="translate(-2 -1.2)" fill="#303879"/>
    <path d="M44.15,16.75a4.09,4.09,0,0,1,4.1-4.17,4.15,4.15,0,0,1,4.17,4.17v3.69c1.91-4.51,5.46-7.93,9.08-7.93a3.84,3.84,0,0,1,4.1,4.1,3.87,3.87,0,0,1-3.28,4c-5.87,1-9.9,5.54-9.9,14.08V45.31a4.13,4.13,0,0,1-4.17,4.09,4.07,4.07,0,0,1-4.1-4.09Z" transform="translate(-2 -1.2)" fill="#303879"/>
    <path d="M68.27,38.68v-.14c0-7.79,6.08-11.61,14.89-11.61a30.08,30.08,0,0,1,9.7,1.5v-.89c0-5.12-3.14-7.85-9-7.85a21.36,21.36,0,0,0-8,1.43,4.56,4.56,0,0,1-1.3.21,3.44,3.44,0,0,1-3.48-3.42,3.61,3.61,0,0,1,2.25-3.28A30.9,30.9,0,0,1,85,12.51c5.39,0,9.42,1.44,11.95,4s3.9,6.43,3.9,11.14V45.44a3.94,3.94,0,0,1-4,4,3.74,3.74,0,0,1-4-3.48V44.55A14.64,14.64,0,0,1,81,49.81C74.28,49.81,68.27,45.92,68.27,38.68ZM93,36.08V33.62a22.94,22.94,0,0,0-8.2-1.43c-5.33,0-8.47,2.25-8.47,6v.14c0,3.48,3.07,5.46,7,5.46C88.83,43.8,93,40.66,93,36.08Z" transform="translate(-2 -1.2)" fill="#303879"/>
    <path d="M108.92,45.71v-.13a5.24,5.24,0,0,1,1.84-4L130,19.75H113A3.38,3.38,0,1,1,113,13h23.77c2.26,0,4,1.37,4,3.28v.21a5.42,5.42,0,0,1-1.77,4L119.64,42.3H137.4a3.38,3.38,0,1,1,0,6.76H113C110.62,49.06,108.92,47.63,108.92,45.71Z" transform="translate(-2 -1.2)" fill="#303879"/>
    <path d="M146.63,38.68v-.14c0-7.79,6.08-11.61,14.89-11.61a30.08,30.08,0,0,1,9.7,1.5v-.89c0-5.12-3.14-7.85-8.95-7.85a21.36,21.36,0,0,0-8,1.43,4.56,4.56,0,0,1-1.3.21,3.44,3.44,0,0,1-3.48-3.42,3.61,3.61,0,0,1,2.25-3.28,30.9,30.9,0,0,1,11.62-2.12c5.39,0,9.42,1.44,11.95,4s3.89,6.43,3.89,11.14V45.44a3.93,3.93,0,0,1-4,4,3.74,3.74,0,0,1-4-3.48V44.55a14.64,14.64,0,0,1-11.75,5.26C152.64,49.81,146.63,45.92,146.63,38.68Zm24.73-2.6V33.62a22.94,22.94,0,0,0-8.2-1.43c-5.33,0-8.47,2.25-8.47,6v.14c0,3.48,3.07,5.46,7,5.46C167.19,43.8,171.36,40.66,171.36,36.08Z" transform="translate(-2 -1.2)" fill="#303879"/>
  </g>
  <path d="M179.13,32a4,4,0,1,1-4-4A4,4,0,0,1,179.13,32Z" transform="translate(-2 -1.2)" fill="#46c7f4"/>
  <circle cx="19.72" cy="3.92" r="3.92" fill="#c1288f"/>
  <circle cx="94.75" cy="30.81" r="4.09" fill="#afd136"/>
  <g>
    <path d="M8.69,66.67v0a3.07,3.07,0,0,1,3.05-3.16,3.19,3.19,0,0,1,2.37,1l-.32.33a2.78,2.78,0,0,0-2.06-.9,2.61,2.61,0,0,0-2.57,2.73v0a2.63,2.63,0,0,0,2.58,2.75,2.77,2.77,0,0,0,2.1-1l.31.3a3.22,3.22,0,0,1-2.43,1.07A3,3,0,0,1,8.69,66.67Z" transform="translate(-2 -1.2)" fill="#231f20"/>
    <path d="M15.56,66.67v0a3.07,3.07,0,0,1,3.08-3.16,3,3,0,0,1,3.06,3.14v0a3.07,3.07,0,1,1-6.14,0Zm5.67,0v0a2.64,2.64,0,0,0-2.61-2.75A2.62,2.62,0,0,0,16,66.63v0a2.64,2.64,0,0,0,2.61,2.75A2.62,2.62,0,0,0,21.23,66.67Z" transform="translate(-2 -1.2)" fill="#231f20"/>
    <path d="M23.86,63.6h.43l4.21,5.31V63.6h.44v6.1h-.35L24.3,64.28V69.7h-.44Z" transform="translate(-2 -1.2)" fill="#231f20"/>
    <path d="M31.36,63.6H35.7V64H31.82v2.4h3.49v.42H31.82v2.45h3.93v.42H31.36Z" transform="translate(-2 -1.2)" fill="#231f20"/>
    <path d="M37.55,66.67v0a3.07,3.07,0,0,1,3.05-3.16,3.2,3.2,0,0,1,2.37,1l-.32.33a2.78,2.78,0,0,0-2.06-.9A2.61,2.61,0,0,0,38,66.63v0A2.63,2.63,0,0,0,40.6,69.4a2.77,2.77,0,0,0,2.1-1l.31.3a3.23,3.23,0,0,1-2.43,1.07A3,3,0,0,1,37.55,66.67Z" transform="translate(-2 -1.2)" fill="#231f20"/>
    <path d="M46.56,64H44.43V63.6h4.71V64H47V69.7h-.45Z" transform="translate(-2 -1.2)" fill="#231f20"/>
    <path d="M52.66,63.55h.44l2.84,6.15h-.49L54.67,68h-3.6l-.78,1.71h-.47Zm1.82,4-1.61-3.53-1.61,3.53Z" transform="translate(-2 -1.2)" fill="#231f20"/>
    <path d="M64,66.67v0a3.07,3.07,0,0,1,3-3.16,3.23,3.23,0,0,1,2.38,1l-.33.33a2.77,2.77,0,0,0-2-.9,2.62,2.62,0,0,0-2.58,2.73v0a2.64,2.64,0,0,0,2.58,2.75,2.78,2.78,0,0,0,2.11-1l.3.3a3.2,3.2,0,0,1-2.42,1.07A3,3,0,0,1,64,66.67Z" transform="translate(-2 -1.2)" fill="#231f20"/>
    <path d="M70.91,66.67v0a3.07,3.07,0,1,1,6.14,0v0A3.08,3.08,0,0,1,74,69.81,3,3,0,0,1,70.91,66.67Zm5.67,0v0A2.64,2.64,0,0,0,74,63.9a2.61,2.61,0,0,0-2.59,2.73v0a2.6,2.6,0,1,0,5.2,0Z" transform="translate(-2 -1.2)" fill="#231f20"/>
    <path d="M79.2,63.6h.43l2.45,3.61,2.45-3.61H85v6.1H84.5V64.4l-2.41,3.51h0L79.64,64.4v5.3H79.2Z" transform="translate(-2 -1.2)" fill="#231f20"/>
    <path d="M87.29,67.16V63.6h.45v3.52a2,2,0,0,0,2.07,2.27c1.24,0,2-.75,2-2.23V63.6h.46v3.51a2.51,2.51,0,1,1-5,0Z" transform="translate(-2 -1.2)" fill="#231f20"/>
    <path d="M94.63,63.6h.42l4.22,5.31V63.6h.43v6.1h-.34l-4.3-5.42V69.7h-.43Z" transform="translate(-2 -1.2)" fill="#231f20"/>
    <path d="M102.19,63.6h.45v6.1h-.45Z" transform="translate(-2 -1.2)" fill="#231f20"/>
    <path d="M104.86,66.67v0a3.07,3.07,0,0,1,3-3.16,3.19,3.19,0,0,1,2.37,1l-.32.33a2.78,2.78,0,0,0-2.06-.9,2.61,2.61,0,0,0-2.57,2.73v0a2.63,2.63,0,0,0,2.58,2.75,2.77,2.77,0,0,0,2.1-1l.31.3a3.23,3.23,0,0,1-2.43,1.07A3,3,0,0,1,104.86,66.67Z" transform="translate(-2 -1.2)" fill="#231f20"/>
    <path d="M114.5,63.55h.43l2.85,6.15h-.5L116.5,68h-3.6l-.77,1.71h-.48Zm1.81,4-1.6-3.53-1.62,3.53Z" transform="translate(-2 -1.2)" fill="#231f20"/>
    <path d="M125.86,66.67v0a3.08,3.08,0,0,1,3.06-3.16,3.2,3.2,0,0,1,2.37,1l-.32.33a2.81,2.81,0,0,0-2.06-.9,2.61,2.61,0,0,0-2.57,2.73v0a2.63,2.63,0,0,0,2.58,2.75,2.77,2.77,0,0,0,2.1-1l.3.3a3.2,3.2,0,0,1-2.42,1.07A3,3,0,0,1,125.86,66.67Z" transform="translate(-2 -1.2)" fill="#231f20"/>
    <path d="M132.74,66.67v0a3.07,3.07,0,0,1,3.08-3.16,3,3,0,0,1,3.06,3.14v0a3.08,3.08,0,0,1-3.08,3.16A3,3,0,0,1,132.74,66.67Zm5.67,0v0a2.64,2.64,0,0,0-2.61-2.75,2.61,2.61,0,0,0-2.59,2.73v0a2.64,2.64,0,0,0,2.61,2.75A2.62,2.62,0,0,0,138.41,66.67Z" transform="translate(-2 -1.2)" fill="#231f20"/>
    <path d="M141,63.6h.45v5.68h3.58v.42h-4Z" transform="translate(-2 -1.2)" fill="#231f20"/>
    <path d="M149.37,63.55h.43l2.85,6.15h-.5L151.37,68h-3.6L147,69.7h-.47Zm1.81,4-1.61-3.53L148,67.58Z" transform="translate(-2 -1.2)" fill="#231f20"/>
    <path d="M154.55,63.6h2.52a2.22,2.22,0,0,1,1.59.54,1.31,1.31,0,0,1,.39,1h0a1.51,1.51,0,0,1-1,1.45c.73.19,1.38.61,1.38,1.46h0c0,1-.87,1.67-2.19,1.67h-2.65Zm4,1.54c0-.67-.55-1.13-1.53-1.13H155v2.4h2c.91,0,1.57-.44,1.57-1.25Zm-1.52,1.69H155v2.45h2.22c1,0,1.71-.48,1.71-1.25h0C158.93,67.27,158.27,66.83,157.07,66.83Z" transform="translate(-2 -1.2)" fill="#231f20"/>
    <path d="M161.19,66.67v0a3.07,3.07,0,1,1,6.14,0v0a3.08,3.08,0,0,1-3.08,3.16A3,3,0,0,1,161.19,66.67Zm5.67,0v0a2.64,2.64,0,0,0-2.61-2.75,2.61,2.61,0,0,0-2.59,2.73v0a2.6,2.6,0,1,0,5.2,0Z" transform="translate(-2 -1.2)" fill="#231f20"/>
    <path d="M169.48,63.6h2.57a2.4,2.4,0,0,1,1.72.6,1.63,1.63,0,0,1,.46,1.13v0c0,1-.76,1.6-1.79,1.74l2,2.61h-.57l-1.95-2.53h-2V69.7h-.46ZM172,66.76c1,0,1.78-.51,1.78-1.39v0c0-.82-.64-1.34-1.75-1.34h-2.08v2.75Z" transform="translate(-2 -1.2)" fill="#231f20"/>
    <path d="M178.72,63.55h.44L182,69.7h-.5L180.73,68h-3.61l-.77,1.71h-.47Zm1.82,4-1.61-3.53-1.61,3.53Z" transform="translate(-2 -1.2)" fill="#231f20"/>
  </g>
  <path d="M6.08,66.15a1.5,1.5,0,1,1-1.5-1.5A1.5,1.5,0,0,1,6.08,66.15Z" transform="translate(-2 -1.2)" fill="#ab2280"/>
  <path d="M61.27,66.58a1.5,1.5,0,1,1-1.5-1.5A1.51,1.51,0,0,1,61.27,66.58Z" transform="translate(-2 -1.2)" fill="#afd136"/>
  <path d="M123.34,66.24a1.51,1.51,0,1,1-1.51-1.5A1.51,1.51,0,0,1,123.34,66.24Z" transform="translate(-2 -1.2)" fill="#3db1e5"/>
</svg>
